<svg width="265" height="265" viewBox="0 0 265 265" fill="none" xmlns="http://www.w3.org/2000/svg">
	<g clip-path="url(#clip0_1202_52)">
		<rect width="265" height="265" rx="26" fill="#175547" />
		<path
			d="M50.4 275.48C29.0667 275.48 12.4267 272.28 0.480001 265.88C-11.4667 259.48 -17.44 250.627 -17.44 239.32C-17.44 232.707 -16.6933 227.373 -15.2 223.32C-13.7067 219.48 -10.08 215.533 -4.32 211.48C-0.0533319 208.493 3.89333 205.613 7.52 202.84C11.1467 200.067 14.0267 197.933 16.16 196.44L32.48 202.84C26.5067 206.04 21.7067 209.667 18.08 213.72C14.4533 217.987 12.64 222.893 12.64 228.44C12.64 237.187 16.2667 244.333 23.52 249.88C30.7733 255.64 40.0533 258.52 51.36 258.52C66.5067 258.52 76.96 255.64 82.72 249.88C86.3467 246.253 89.2267 242.2 91.36 237.72C93.4933 233.24 94.56 228.867 94.56 224.6C94.56 221.4 93.4933 218.84 91.36 216.92C89.2267 215 85.1733 213.293 79.2 211.8C73.44 210.52 65.12 209.347 54.24 208.28C31.6267 205.933 15.4133 201.347 5.6 194.52C-4 187.907 -8.8 179.267 -8.8 168.6C-8.8 166.68 -8.26667 164.653 -7.2 162.52C-5.92 160.387 -3.46667 158.147 0.16 155.8C3.14667 153.667 6.02667 151.533 8.8 149.4C11.7867 147.267 14.3467 145.24 16.48 143.32C18.6133 141.4 20 139.693 20.64 138.2L37.6 143.96C33.3333 145.24 29.92 147.16 27.36 149.72C24.8 152.28 23.52 154.413 23.52 156.12C23.52 158.253 24.8 160.067 27.36 161.56C30.1333 162.84 34.8267 163.907 41.44 164.76C48.2667 165.613 57.76 166.573 69.92 167.64C93.8133 169.56 110.987 173.187 121.44 178.52C132.107 183.64 137.44 191.213 137.44 201.24C137.44 210.2 134.88 219.053 129.76 227.8C124.853 236.547 118.133 244.547 109.6 251.8C101.28 259.053 92 264.813 81.76 269.08C71.52 273.347 61.0667 275.48 50.4 275.48ZM54.88 138.2C61.28 138.2 66.2933 134.573 69.92 127.32C73.76 119.853 75.68 109.827 75.68 97.24C75.68 89.1333 74.72 82.0933 72.8 76.12C71.0933 70.1467 68.64 65.56 65.44 62.36C62.24 58.9467 58.4 57.24 53.92 57.24C49.8667 57.24 46.24 58.9467 43.04 62.36C39.84 65.56 37.28 70.04 35.36 75.8C33.6533 81.56 32.8 88.1733 32.8 95.64C32.8 103.747 33.76 111 35.68 117.4C37.6 123.8 40.2667 128.92 43.68 132.76C47.0933 136.387 50.8267 138.2 54.88 138.2ZM51.04 152.92C41.44 152.92 31.9467 150.68 22.56 146.2C13.3867 141.507 5.70667 135.107 -0.479999 127C-6.45333 118.68 -9.44 109.293 -9.44 98.84C-9.44 87.96 -6.34667 78.36 -0.159999 70.04C6.24 61.5067 14.4533 54.8933 24.48 50.2C34.72 45.5067 45.6 43.16 57.12 43.16C63.7333 43.16 70.1333 43.9067 76.32 45.4C82.5067 46.8933 89.44 48.1733 97.12 49.24C100.96 49.88 105.013 50.4133 109.28 50.84C113.547 51.2667 118.24 51.48 123.36 51.48C126.773 51.48 129.973 51.3733 132.96 51.16C136.16 50.7333 138.827 50.52 140.96 50.52C144.587 50.52 146.4 53.08 146.4 58.2C146.4 62.68 144.907 66.9467 141.92 71C140.64 72.4933 139.253 73.24 137.76 73.24H129.12C123.573 73.24 119.733 74.0933 117.6 75.8C116.96 76.2267 116.533 76.5467 116.32 76.76C116.107 76.9733 116 78.04 116 79.96C116 81.6667 116 85.2933 116 90.84C116 102.147 113.013 112.493 107.04 121.88C101.067 131.267 93.1733 138.84 83.36 144.6C73.5467 150.147 62.7733 152.92 51.04 152.92Z"
			fill="white" />
		<path
			d="M117.46 155.3C115.553 155.3 113.907 154.953 112.52 154.26C111.307 153.74 110.7 152.613 110.7 150.88C110.7 149.147 111.22 147.933 112.26 147.24C113.473 146.373 114.86 145.68 116.42 145.16C121.62 143.773 126.04 141.607 129.68 138.66C133.493 135.713 136.267 132.333 138 128.52C142.16 118.987 146.147 109.54 149.96 100.18C153.773 90.82 157.5 81.5467 161.14 72.36C164.78 63 168.333 53.64 171.8 44.28C175.44 34.7467 178.993 25.2133 182.46 15.68C185.407 7.70666 187.227 2.07333 187.92 -1.22C188.613 -4.68667 189.22 -6.50668 189.74 -6.68001C193.207 -7.54667 196.413 -8.32667 199.36 -9.02001C202.307 -9.88667 205.6 -10.9267 209.24 -12.14C212.533 -13.3533 215.393 -14.8267 217.82 -16.56C220.42 -18.4667 222.327 -20.0267 223.54 -21.24C224.407 -21.76 225.187 -22.1067 225.88 -22.28C226.747 -22.4533 227.527 -21.8467 228.22 -20.46C228.913 -19.2467 229.433 -18.0333 229.78 -16.82C230.3 -15.78 230.733 -14.5667 231.08 -13.18C234.547 -1.74 238.1 9.78666 241.74 21.4C245.553 33.0133 249.367 44.8 253.18 56.76C256.993 68.5467 260.807 80.42 264.62 92.38C268.607 104.34 272.507 116.387 276.32 128.52C277.187 131.293 278.573 133.807 280.48 136.06C282.56 138.14 284.987 139.96 287.76 141.52C290.533 142.907 293.653 144.12 297.12 145.16C298.68 145.68 299.98 146.287 301.02 146.98C302.233 147.673 302.84 148.887 302.84 150.62C302.84 151.833 302.32 152.787 301.28 153.48C300.413 154.173 299.287 154.52 297.9 154.52C294.26 154.52 289.753 154.433 284.38 154.26C279.18 154.087 273.893 153.913 268.52 153.74C263.32 153.567 258.727 153.48 254.74 153.48C251.273 153.48 247.027 153.567 242 153.74C236.973 153.913 231.86 154.087 226.66 154.26C221.46 154.607 216.953 154.78 213.14 154.78C211.753 154.78 210.453 154.433 209.24 153.74C208.2 153.047 207.68 152.093 207.68 150.88C207.68 149.32 208.2 148.107 209.24 147.24C210.453 146.2 211.84 145.507 213.4 145.16C219.987 143.773 224.84 141.953 227.96 139.7C231.08 137.447 231.947 133.807 230.56 128.78C229.693 125.313 228.74 121.933 227.7 118.64C226.833 115.347 225.967 112.053 225.1 108.76C224.233 105.293 223.367 101.913 222.5 98.62C222.153 97.2333 221.72 96.1933 221.2 95.5C220.68 94.6333 219.727 94.2 218.34 94.2L173.1 94.2C171.713 94.2 170.673 94.6333 169.98 95.5C169.46 96.1933 169.027 97.2333 168.68 98.62C167.987 101.22 167.207 103.647 166.34 105.9C165.647 107.98 164.953 110.06 164.26 112.14C163.567 114.22 162.873 116.387 162.18 118.64C161.487 120.72 160.793 123.06 160.1 125.66C158.54 131.207 158.8 135.367 160.88 138.14C162.96 140.913 168.073 143.253 176.22 145.16C180.033 146.027 181.94 147.933 181.94 150.88C181.94 152.093 181.507 153.047 180.64 153.74C179.773 154.26 178.387 154.52 176.48 154.52C170.76 154.52 165.733 154.347 161.4 154C157.067 153.827 152.3 153.74 147.1 153.74C142.073 153.74 137.22 154 132.54 154.52C128.033 155.04 123.007 155.3 117.46 155.3ZM180.38 79.12L212.88 79.12C215.48 79.12 216.78 78.5133 216.78 77.3C216.78 76.6067 216.693 76.1733 216.52 76C216.52 75.6533 216.433 75.1333 216.26 74.44L199.62 16.98C199.1 15.2467 198.58 14.38 198.06 14.38C197.713 14.38 197.193 15.2467 196.5 16.98L176.48 74.44C176.133 75.1333 175.96 75.8267 175.96 76.52C175.96 77.3867 176.393 78.08 177.26 78.6C178.3 78.9467 179.34 79.12 180.38 79.12Z"
			fill="white" />
	</g>
	<defs>
		<clipPath id="clip0_1202_52">
			<rect width="265" height="265" rx="26" fill="white" />
		</clipPath>
	</defs>
</svg>